<svg xmlns="http://www.w3.org/2000/svg" xmlns:xlink="http://www.w3.org/1999/xlink" width="500" zoomAndPan="magnify" viewBox="0 0 375 374.999991" height="500" preserveAspectRatio="xMidYMid meet" version="1.0"><defs><g/><clipPath id="78afece638"><path d="M 182 60.4375 L 197 60.4375 L 197 139 L 182 139 Z M 182 60.4375 " clip-rule="nonzero"/></clipPath><clipPath id="45c025c504"><path d="M 141.085938 107 L 155 107 L 155 137 L 141.085938 137 Z M 141.085938 107 " clip-rule="nonzero"/></clipPath><clipPath id="de7b3e5f9c"><path d="M 185 67 L 198.878906 67 L 198.878906 146 L 185 146 Z M 185 67 " clip-rule="nonzero"/></clipPath><clipPath id="29fecbe6dc"><path d="M 164 97 L 179 97 L 179 152.90625 L 164 152.90625 Z M 164 97 " clip-rule="nonzero"/></clipPath><clipPath id="cce98e2a5b"><path d="M 88 16 L 251 16 L 251 180 L 88 180 Z M 88 16 " clip-rule="nonzero"/></clipPath><clipPath id="db80409fb9"><path d="M 109.136719 0.0820312 L 268.34375 37.199219 L 231.226562 196.402344 L 72.023438 159.289062 Z M 109.136719 0.0820312 " clip-rule="nonzero"/></clipPath><clipPath id="74eef1b986"><path d="M 109.136719 0.0820312 L 268.34375 37.199219 L 231.226562 196.402344 L 72.023438 159.289062 Z M 109.136719 0.0820312 " clip-rule="nonzero"/></clipPath><clipPath id="ab75f69eac"><path d="M 0.519531 166 L 352.121094 166 L 352.121094 265.960938 L 0.519531 265.960938 Z M 0.519531 166 " clip-rule="nonzero"/></clipPath><clipPath id="12b1d495ac"><rect x="0" width="353" y="0" height="100"/></clipPath><clipPath id="9e2f1c1f1e"><rect x="0" width="353" y="0" height="266"/></clipPath></defs><g transform="matrix(1, 0, 0, 1, 11, 59)"><g clip-path="url(#9e2f1c1f1e)"><g clip-path="url(#78afece638)"><path fill="#19305d" d="M 196.574219 60.464844 L 196.574219 131.605469 L 182.855469 138.363281 L 182.855469 73.101562 Z M 196.574219 60.464844 " fill-opacity="1" fill-rule="nonzero"/></g><path fill="#19305d" d="M 175.679688 90.300781 L 175.679688 142.851562 L 171.96875 145.160156 C 170.992188 145.773438 169.714844 145.773438 168.742188 145.160156 L 161.980469 140.941406 L 161.980469 101.605469 Z M 175.679688 90.300781 " fill-opacity="1" fill-rule="nonzero"/><g clip-path="url(#45c025c504)"><path fill="#19305d" d="M 154.804688 107.285156 L 154.804688 136.472656 L 141.085938 127.945312 L 141.085938 118.441406 Z M 154.804688 107.285156 " fill-opacity="1" fill-rule="nonzero"/></g><g clip-path="url(#de7b3e5f9c)"><path fill="#1c75bc" d="M 199.28125 67.621094 L 199.28125 138.761719 L 185.578125 145.539062 L 185.578125 80.277344 Z M 199.28125 67.621094 " fill-opacity="1" fill-rule="nonzero"/></g><g clip-path="url(#29fecbe6dc)"><path fill="#1c75bc" d="M 178.386719 97.457031 L 178.386719 150.011719 L 174.671875 152.316406 C 173.699219 152.929688 172.417969 152.929688 171.445312 152.316406 L 164.683594 148.097656 L 164.683594 108.761719 Z M 178.386719 97.457031 " fill-opacity="1" fill-rule="nonzero"/></g><path fill="#1c75bc" d="M 157.507812 114.441406 L 157.507812 143.628906 L 143.789062 135.101562 L 143.789062 125.601562 Z M 157.507812 114.441406 " fill-opacity="1" fill-rule="nonzero"/><g clip-path="url(#cce98e2a5b)"><g clip-path="url(#db80409fb9)"><g clip-path="url(#74eef1b986)"><path fill="#19305c" d="M 213.527344 106.15625 L 213.054688 108.199219 C 207.542969 131.835938 183.832031 146.582031 160.199219 141.074219 C 136.578125 135.566406 121.832031 111.875 127.320312 88.25 C 132.847656 64.632812 156.546875 49.90625 180.167969 55.414062 L 182.207031 55.886719 L 190.773438 19.152344 L 188.734375 18.675781 C 144.882812 8.453125 100.847656 35.804688 90.570312 79.722656 C 80.386719 123.582031 107.785156 167.585938 151.632812 177.808594 C 195.527344 188.042969 239.5625 160.65625 249.796875 116.761719 L 250.269531 114.722656 L 213.527344 106.15625 " fill-opacity="1" fill-rule="nonzero"/></g></g></g><g clip-path="url(#ab75f69eac)"><g transform="matrix(1, 0, 0, 1, -0.000000000000001776, 166)"><g clip-path="url(#12b1d495ac)"><g fill="#19305d" fill-opacity="1"><g transform="translate(0.994766, 76.622827)"><g><path d="M 28.640625 1.296875 C 23.742188 1.296875 19.320312 0.21875 15.375 -1.9375 C 11.425781 -4.09375 8.328125 -7.097656 6.078125 -10.953125 C 3.835938 -14.804688 2.71875 -19.207031 2.71875 -24.15625 C 2.71875 -29.1875 3.863281 -33.617188 6.15625 -37.453125 C 8.445312 -41.285156 11.578125 -44.242188 15.546875 -46.328125 C 19.515625 -48.421875 23.953125 -49.46875 28.859375 -49.46875 C 32.347656 -49.46875 35.734375 -48.84375 39.015625 -47.59375 C 42.304688 -46.351562 44.929688 -44.617188 46.890625 -42.390625 L 38.984375 -34.5 C 37.941406 -35.945312 36.546875 -37.046875 34.796875 -37.796875 C 33.054688 -38.546875 31.210938 -38.921875 29.265625 -38.921875 C 26.585938 -38.921875 24.191406 -38.285156 22.078125 -37.015625 C 19.972656 -35.742188 18.328125 -33.984375 17.140625 -31.734375 C 15.960938 -29.492188 15.375 -26.96875 15.375 -24.15625 C 15.375 -21.25 15.953125 -18.6875 17.109375 -16.46875 C 18.265625 -14.25 19.882812 -12.515625 21.96875 -11.265625 C 24.0625 -10.015625 26.425781 -9.390625 29.0625 -9.390625 C 31.28125 -9.390625 33.273438 -9.832031 35.046875 -10.71875 C 36.816406 -11.601562 38.222656 -12.796875 39.265625 -14.296875 L 47.359375 -6.671875 C 45.179688 -4.128906 42.503906 -2.164062 39.328125 -0.78125 C 36.148438 0.601562 32.585938 1.296875 28.640625 1.296875 Z M 28.640625 1.296875 "/></g></g></g><g fill="#19305d" fill-opacity="1"><g transform="translate(47.530394, 76.622827)"><g><path d="M 21.4375 1.09375 C 18.03125 1.09375 14.882812 0.34375 12 -1.15625 C 9.125 -2.65625 6.847656 -4.785156 5.171875 -7.546875 C 3.492188 -10.316406 2.65625 -13.492188 2.65625 -17.078125 C 2.65625 -20.660156 3.492188 -23.8125 5.171875 -26.53125 C 6.847656 -29.257812 9.113281 -31.347656 11.96875 -32.796875 C 14.832031 -34.242188 17.988281 -34.96875 21.4375 -34.96875 C 24.882812 -34.96875 28.046875 -34.242188 30.921875 -32.796875 C 33.804688 -31.347656 36.085938 -29.257812 37.765625 -26.53125 C 39.441406 -23.8125 40.28125 -20.660156 40.28125 -17.078125 C 40.28125 -13.492188 39.429688 -10.316406 37.734375 -7.546875 C 36.035156 -4.785156 33.753906 -2.65625 30.890625 -1.15625 C 28.035156 0.34375 24.882812 1.09375 21.4375 1.09375 Z M 21.5 -8.296875 C 23.175781 -8.296875 24.613281 -8.710938 25.8125 -9.546875 C 27.019531 -10.390625 27.941406 -11.476562 28.578125 -12.8125 C 29.210938 -14.15625 29.53125 -15.578125 29.53125 -17.078125 C 29.53125 -18.578125 29.210938 -19.984375 28.578125 -21.296875 C 27.941406 -22.609375 27.007812 -23.671875 25.78125 -24.484375 C 24.5625 -25.304688 23.113281 -25.71875 21.4375 -25.71875 C 19.757812 -25.71875 18.316406 -25.304688 17.109375 -24.484375 C 15.910156 -23.671875 15.003906 -22.609375 14.390625 -21.296875 C 13.773438 -19.984375 13.46875 -18.578125 13.46875 -17.078125 C 13.46875 -15.578125 13.785156 -14.15625 14.421875 -12.8125 C 15.054688 -11.476562 15.972656 -10.390625 17.171875 -9.546875 C 18.378906 -8.710938 19.820312 -8.296875 21.5 -8.296875 Z M 21.5 -8.296875 "/></g></g></g><g fill="#19305d" fill-opacity="1"><g transform="translate(90.528303, 76.622827)"><g><path d="M 46.46875 -35.046875 C 49.375 -35.046875 51.742188 -34.363281 53.578125 -33 C 55.421875 -31.644531 56.75 -29.910156 57.5625 -27.796875 C 58.382812 -25.691406 58.796875 -23.476562 58.796875 -21.15625 L 58.796875 0 L 47.625 0 L 47.625 -18.71875 C 47.625 -20.9375 47.269531 -22.679688 46.5625 -23.953125 C 45.863281 -25.222656 44.609375 -25.859375 42.796875 -25.859375 C 41.578125 -25.859375 40.546875 -25.515625 39.703125 -24.828125 C 38.867188 -24.148438 38.234375 -23.253906 37.796875 -22.140625 C 37.367188 -21.035156 37.15625 -19.828125 37.15625 -18.515625 L 37.15625 0 L 26 0 L 26 -19.53125 C 26 -21.53125 25.597656 -23.082031 24.796875 -24.1875 C 24.003906 -25.300781 22.789062 -25.859375 21.15625 -25.859375 C 19.4375 -25.859375 18.078125 -25.164062 17.078125 -23.78125 C 16.078125 -22.394531 15.578125 -20.660156 15.578125 -18.578125 L 15.578125 0 L 4.359375 0 L 4.359375 -34.09375 L 15.171875 -34.09375 L 15.171875 -29.390625 L 15.3125 -29.390625 C 16.175781 -30.984375 17.488281 -32.320312 19.25 -33.40625 C 21.019531 -34.5 23.085938 -35.046875 25.453125 -35.046875 C 27.859375 -35.046875 29.921875 -34.546875 31.640625 -33.546875 C 33.367188 -32.546875 34.707031 -31.117188 35.65625 -29.265625 C 38.101562 -33.117188 41.707031 -35.046875 46.46875 -35.046875 Z M 46.46875 -35.046875 "/></g></g></g><g fill="#19305d" fill-opacity="1"><g transform="translate(153.392338, 76.622827)"><g><path d="M 4.359375 16.328125 L 4.359375 -34.09375 L 14.96875 -34.09375 L 14.96875 -29.9375 L 15.171875 -29.9375 C 16.265625 -31.4375 17.75 -32.660156 19.625 -33.609375 C 21.507812 -34.566406 23.632812 -35.046875 26 -35.046875 C 29.164062 -35.046875 31.972656 -34.238281 34.421875 -32.625 C 36.878906 -31.019531 38.765625 -28.851562 40.078125 -26.125 C 41.390625 -23.40625 42.046875 -20.4375 42.046875 -17.21875 C 42.046875 -14 41.398438 -11.003906 40.109375 -8.234375 C 38.816406 -5.460938 36.945312 -3.238281 34.5 -1.5625 C 32.050781 0.113281 29.191406 0.953125 25.921875 0.953125 C 23.835938 0.953125 21.863281 0.535156 20 -0.296875 C 18.144531 -1.140625 16.695312 -2.289062 15.65625 -3.75 L 15.515625 -3.75 L 15.515625 16.328125 Z M 23.265625 -8.296875 C 24.953125 -8.296875 26.394531 -8.710938 27.59375 -9.546875 C 28.789062 -10.390625 29.695312 -11.492188 30.3125 -12.859375 C 30.925781 -14.222656 31.234375 -15.675781 31.234375 -17.21875 C 31.234375 -18.757812 30.925781 -20.1875 30.3125 -21.5 C 29.695312 -22.8125 28.789062 -23.875 27.59375 -24.6875 C 26.394531 -25.507812 24.953125 -25.921875 23.265625 -25.921875 C 21.679688 -25.921875 20.265625 -25.5 19.015625 -24.65625 C 17.765625 -23.820312 16.800781 -22.722656 16.125 -21.359375 C 15.445312 -20.003906 15.109375 -18.597656 15.109375 -17.140625 C 15.109375 -15.648438 15.445312 -14.222656 16.125 -12.859375 C 16.800781 -11.492188 17.753906 -10.390625 18.984375 -9.546875 C 20.210938 -8.710938 21.640625 -8.296875 23.265625 -8.296875 Z M 23.265625 -8.296875 "/></g></g></g><g fill="#19305d" fill-opacity="1"><g transform="translate(198.091112, 76.622827)"><g><path d="M 17.625 0.8125 C 13.3125 0.8125 10.222656 -0.226562 8.359375 -2.3125 C 6.503906 -4.394531 5.578125 -7.367188 5.578125 -11.234375 L 5.578125 -25.71875 L 0.140625 -25.71875 L 0.140625 -34.09375 L 5.515625 -34.09375 L 5.515625 -42.9375 L 16.46875 -42.9375 L 16.46875 -34.09375 L 24.421875 -34.09375 L 24.421875 -25.71875 L 16.46875 -25.71875 L 16.46875 -12.59375 C 16.46875 -10.957031 16.785156 -9.753906 17.421875 -8.984375 C 18.054688 -8.210938 19.144531 -7.828125 20.6875 -7.828125 C 21.226562 -7.828125 21.804688 -7.867188 22.421875 -7.953125 C 23.035156 -8.046875 23.546875 -8.1875 23.953125 -8.375 L 24.09375 -0.203125 C 23.320312 0.0664062 22.332031 0.300781 21.125 0.5 C 19.925781 0.707031 18.757812 0.8125 17.625 0.8125 Z M 17.625 0.8125 "/></g></g></g><g fill="#19305d" fill-opacity="1"><g transform="translate(223.400023, 76.622827)"><g><path d="M 14.5625 0.8125 C 12.5625 0.8125 10.628906 0.460938 8.765625 -0.234375 C 6.910156 -0.941406 5.359375 -2.085938 4.109375 -3.671875 C 2.867188 -5.265625 2.25 -7.304688 2.25 -9.796875 C 2.25 -17.421875 9.4375 -21.234375 23.8125 -21.234375 L 24.015625 -21.234375 L 24.015625 -21.78125 C 24.015625 -23.363281 23.445312 -24.570312 22.3125 -25.40625 C 21.1875 -26.25 19.710938 -26.671875 17.890625 -26.671875 C 16.347656 -26.671875 14.835938 -26.34375 13.359375 -25.6875 C 11.890625 -25.03125 10.613281 -24.203125 9.53125 -23.203125 L 3.875 -29.265625 C 5.820312 -31.117188 8.125 -32.53125 10.78125 -33.5 C 13.4375 -34.476562 16.171875 -34.96875 18.984375 -34.96875 C 22.753906 -34.96875 25.78125 -34.332031 28.0625 -33.0625 C 30.351562 -31.800781 32.007812 -29.863281 33.03125 -27.25 C 34.050781 -24.644531 34.5625 -21.253906 34.5625 -17.078125 L 34.5625 0 L 24.359375 0 L 24.359375 -3.609375 L 24.15625 -3.609375 C 23.34375 -2.242188 22.050781 -1.164062 20.28125 -0.375 C 18.507812 0.414062 16.601562 0.8125 14.5625 0.8125 Z M 17.359375 -6.671875 C 19.578125 -6.671875 21.296875 -7.289062 22.515625 -8.53125 C 23.742188 -9.78125 24.359375 -11.472656 24.359375 -13.609375 L 24.359375 -14.765625 L 22.9375 -14.765625 C 19.894531 -14.765625 17.394531 -14.445312 15.4375 -13.8125 C 13.488281 -13.175781 12.515625 -11.953125 12.515625 -10.140625 C 12.515625 -8.960938 12.988281 -8.085938 13.9375 -7.515625 C 14.894531 -6.953125 16.035156 -6.671875 17.359375 -6.671875 Z M 17.359375 -6.671875 "/></g></g></g><g fill="#19305d" fill-opacity="1"><g transform="translate(261.907636, 76.622827)"><g><path d="M 4.359375 -25.453125 L 4.359375 -34.09375 L 15.109375 -34.09375 L 15.109375 -29.1875 L 15.25 -29.1875 C 16.101562 -30.957031 17.347656 -32.375 18.984375 -33.4375 C 20.617188 -34.507812 22.429688 -35.046875 24.421875 -35.046875 C 25.515625 -35.046875 26.3125 -34.953125 26.8125 -34.765625 L 26.328125 -24.96875 C 25.472656 -25.195312 24.519531 -25.3125 23.46875 -25.3125 C 21.613281 -25.3125 20.09375 -24.890625 18.90625 -24.046875 C 17.726562 -23.210938 16.867188 -22.203125 16.328125 -21.015625 C 15.785156 -19.835938 15.515625 -18.707031 15.515625 -17.625 L 15.515625 0 L 4.359375 0 Z M 4.359375 -25.453125 "/></g></g></g><g fill="#19305d" fill-opacity="1"><g transform="translate(288.849372, 76.622827)"><g><path d="M 10.078125 -38.578125 C 8.890625 -38.578125 7.804688 -38.847656 6.828125 -39.390625 C 5.859375 -39.941406 5.085938 -40.691406 4.515625 -41.640625 C 3.953125 -42.597656 3.671875 -43.617188 3.671875 -44.703125 C 3.671875 -45.796875 3.953125 -46.804688 4.515625 -47.734375 C 5.085938 -48.660156 5.859375 -49.40625 6.828125 -49.96875 C 7.804688 -50.539062 8.890625 -50.828125 10.078125 -50.828125 C 11.253906 -50.828125 12.328125 -50.554688 13.296875 -50.015625 C 14.273438 -49.472656 15.046875 -48.734375 15.609375 -47.796875 C 16.179688 -46.867188 16.46875 -45.835938 16.46875 -44.703125 C 16.46875 -43.566406 16.179688 -42.535156 15.609375 -41.609375 C 15.046875 -40.679688 14.273438 -39.941406 13.296875 -39.390625 C 12.328125 -38.847656 11.253906 -38.578125 10.078125 -38.578125 Z M 15.65625 0 L 4.484375 0 L 4.484375 -34.09375 L 15.65625 -34.09375 Z M 15.65625 0 "/></g></g></g><g fill="#19305d" fill-opacity="1"><g transform="translate(308.98763, 76.622827)"><g><path d="M 21.4375 1.09375 C 18.03125 1.09375 14.882812 0.34375 12 -1.15625 C 9.125 -2.65625 6.847656 -4.785156 5.171875 -7.546875 C 3.492188 -10.316406 2.65625 -13.492188 2.65625 -17.078125 C 2.65625 -20.660156 3.492188 -23.8125 5.171875 -26.53125 C 6.847656 -29.257812 9.113281 -31.347656 11.96875 -32.796875 C 14.832031 -34.242188 17.988281 -34.96875 21.4375 -34.96875 C 24.882812 -34.96875 28.046875 -34.242188 30.921875 -32.796875 C 33.804688 -31.347656 36.085938 -29.257812 37.765625 -26.53125 C 39.441406 -23.8125 40.28125 -20.660156 40.28125 -17.078125 C 40.28125 -13.492188 39.429688 -10.316406 37.734375 -7.546875 C 36.035156 -4.785156 33.753906 -2.65625 30.890625 -1.15625 C 28.035156 0.34375 24.882812 1.09375 21.4375 1.09375 Z M 21.5 -8.296875 C 23.175781 -8.296875 24.613281 -8.710938 25.8125 -9.546875 C 27.019531 -10.390625 27.941406 -11.476562 28.578125 -12.8125 C 29.210938 -14.15625 29.53125 -15.578125 29.53125 -17.078125 C 29.53125 -18.578125 29.210938 -19.984375 28.578125 -21.296875 C 27.941406 -22.609375 27.007812 -23.671875 25.78125 -24.484375 C 24.5625 -25.304688 23.113281 -25.71875 21.4375 -25.71875 C 19.757812 -25.71875 18.316406 -25.304688 17.109375 -24.484375 C 15.910156 -23.671875 15.003906 -22.609375 14.390625 -21.296875 C 13.773438 -19.984375 13.46875 -18.578125 13.46875 -17.078125 C 13.46875 -15.578125 13.785156 -14.15625 14.421875 -12.8125 C 15.054688 -11.476562 15.972656 -10.390625 17.171875 -9.546875 C 18.378906 -8.710938 19.820312 -8.296875 21.5 -8.296875 Z M 21.5 -8.296875 "/></g></g></g></g></g></g></g></g></svg>